<svg width="18" height="18" viewBox="0 0 18 18" fill="none" xmlns="http://www.w3.org/2000/svg">
    <rect x="0.25" y="0.25" width="17.5" height="17.5" rx="3.75" stroke="currentColor" stroke-width="0.5"></rect>
    <path fill-rule="evenodd" clip-rule="evenodd"
        d="M4.3335 5.96962C4.3335 5.06588 5.06612 4.33325 5.96986 4.33325C6.8736 4.33325 7.60623 5.06587 7.60623 5.96962V5.97079V5.97197V5.97315V5.97434V5.97553V5.97673V5.97792V5.97913V5.98033V5.98155V5.98276V5.98398V5.98521V5.98643V5.98766V5.9889V5.99014V5.99138V5.99263V5.99389V5.99514V5.9964V5.99767V5.99894V6.00021V6.00148V6.00277V6.00405V6.00534V6.00663V6.00793V6.00923V6.01054V6.01185V6.01316V6.01448V6.0158V6.01713V6.01846V6.01979V6.02113V6.02247V6.02382V6.02517V6.02652V6.02788V6.02924V6.03061V6.03198V6.03336V6.03473V6.03612V6.03751V6.0389V6.04029V6.04169V6.04309V6.0445V6.04591V6.04733V6.04875V6.05017V6.0516V6.05303V6.05447V6.05591V6.05736V6.0588V6.06026V6.06171V6.06317V6.06464V6.06611V6.06758V6.06906V6.07054V6.07203V6.07352V6.07501V6.07651V6.07801V6.07951V6.08102V6.08254V6.08406V6.08558V6.0871V6.08864V6.09017V6.09171V6.09325V6.0948V6.09635V6.0979V6.09946V6.10103V6.10259V6.10416V6.10574V6.10732V6.1089V6.11049V6.11208V6.11368V6.11528V6.11688V6.11849V6.1201V6.12172V6.12334V6.12496V6.12659V6.12822V6.12986V6.1315V6.13315V6.1348V6.13645V6.13811V6.13977V6.14143V6.1431V6.14478V6.14645V6.14813V6.14982V6.15151V6.1532V6.1549V6.1566V6.15831V6.16002V6.16174V6.16345V6.16518V6.1669V6.16863V6.17037V6.17211V6.17385V6.1756V6.17735V6.1791V6.18086V6.18263V6.18439V6.18617V6.18794V6.18972V6.19151V6.19329V6.19509V6.19688V6.19868V6.20049V6.2023V6.20411V6.20592V6.20775V6.20957V6.2114V6.21323V6.21507V6.21691V6.21876V6.22061V6.22246V6.22432V6.22618V6.22804V6.22991V6.23179V6.23367V6.23555V6.23743V6.23932V6.24122V6.24312V6.24502V6.24693V6.24884V6.25075V6.25267V6.25459V6.25652V6.25845V6.26039V6.26233V6.26427V6.26622V6.26817V6.27012V6.27208V6.27405V6.27602V6.27799V6.27996V6.28194V6.28393V6.28592V6.28791V6.28991V6.29191V6.29391V6.29592V6.29793V6.29995V6.30197V6.304V6.30603V6.30806V6.3101V6.31214V6.31418V6.31623V6.31829V6.32035V6.32241V6.32447V6.32654V6.32862V6.3307V6.33278V6.33487V6.33696V6.33905V6.34115V6.34325V6.34536V6.34747V6.34959V6.35171V6.35383V6.35596V6.35809V6.36022V6.36236V6.36451V6.36665V6.36881V6.37096V6.37312V6.37529V6.37746V6.37963V6.3818V6.38399V6.38617V6.38836V6.39055V6.39275V6.39495V6.39715V6.39936V6.40158V6.40379V6.40602V6.40824V6.41047V6.41271V6.41494V6.41719V6.41943V6.42168V6.42394V6.42619V6.42846V6.43072V6.43299V6.43527V6.43755V6.43983V6.44212V6.44441V6.4467V6.449V6.45131V6.45361V6.45592V6.45824V6.46056V6.46288V6.46521V6.46754V6.46988V6.47222V6.47456V6.47691V6.47926V6.48162V6.48398V6.48635V6.48871V6.49109V6.49346V6.49584V6.49823V6.50062V6.50301V6.50541V6.50781V6.51022V6.51263V6.51504V6.51746V6.51988V6.52231V6.52474V6.52717V6.52961V6.53205V6.5345V6.53695V6.5394V6.54186V6.54432V6.54679V6.54926V6.55174V6.55422V6.5567V6.55919V6.56168V6.56417V6.56667V6.56918V6.57168V6.5742V6.57671V6.57923V6.58176V6.58428V6.58682V6.58935V6.59189V6.59444V6.59699V6.59954V6.6021V6.60466V6.60609H10.3938V5.96962C10.3938 5.06587 11.1264 4.33325 12.0301 4.33325C12.9339 4.33325 13.6665 5.06588 13.6665 5.96962C13.6665 6.87335 12.9339 7.60598 12.0301 7.60598H11.3944V10.394H12.0301C12.9339 10.394 13.6665 11.1266 13.6665 12.0303C13.6665 12.9341 12.9339 13.6667 12.0301 13.6667C11.1264 13.6667 10.3938 12.9341 10.3938 12.0303V11.394H7.60623V12.0303C7.60623 12.9341 6.8736 13.6667 5.96986 13.6667C5.06612 13.6667 4.3335 12.9341 4.3335 12.0303C4.3335 11.1266 5.06612 10.394 5.96986 10.394H6.60656V7.60598H6.60447H6.60196H6.59945H6.59695H6.59446H6.59196H6.58947H6.58699H6.58451H6.58203H6.57955H6.57708H6.57461H6.57215H6.56969H6.56723H6.56478H6.56233H6.55989H6.55744H6.55501H6.55257H6.55014H6.54771H6.54529H6.54287H6.54046H6.53804H6.53563H6.53323H6.53083H6.52843H6.52604H6.52365H6.52126H6.51888H6.5165H6.51412H6.51175H6.50938H6.50702H6.50466H6.5023H6.49995H6.4976H6.49525H6.49291H6.49057H6.48823H6.4859H6.48357H6.48125H6.47893H6.47661H6.4743H6.47199H6.46968H6.46738H6.46508H6.46279H6.4605H6.45821H6.45593H6.45365H6.45137H6.4491H6.44683H6.44456H6.4423H6.44004H6.43779H6.43554H6.43329H6.43105H6.42881H6.42657H6.42434H6.42211H6.41989H6.41766H6.41545H6.41323H6.41102H6.40882H6.40661H6.40441H6.40222H6.40003H6.39784H6.39565H6.39347H6.39129H6.38912H6.38695H6.38479H6.38262H6.38046H6.37831H6.37616H6.37401H6.37187H6.36972H6.36759H6.36545H6.36333H6.3612H6.35908H6.35696H6.35484H6.35273H6.35063H6.34852H6.34642H6.34433H6.34223H6.34014H6.33806H6.33598H6.3339H6.33182H6.32975H6.32769H6.32562H6.32356H6.32151H6.31946H6.31741H6.31536H6.31332H6.31128H6.30925H6.30722H6.30519H6.30317H6.30115H6.29913H6.29712H6.29511H6.29311H6.29111H6.28911H6.28712H6.28513H6.28314H6.28116H6.27918H6.27721H6.27523H6.27327H6.2713H6.26934H6.26738H6.26543H6.26348H6.26154H6.25959H6.25766H6.25572H6.25379H6.25186H6.24994H6.24802H6.2461H6.24419H6.24228H6.24038H6.23847H6.23658H6.23468H6.23279H6.2309H6.22902H6.22714H6.22526H6.22339H6.22152H6.21966H6.2178H6.21594H6.21409H6.21224H6.21039H6.20855H6.20671H6.20487H6.20304H6.20121H6.19939H6.19757H6.19575H6.19393H6.19212H6.19032H6.18852H6.18672H6.18492H6.18313H6.18134H6.17956H6.17778H6.176H6.17423H6.17246H6.17069H6.16893H6.16717H6.16542H6.16367H6.16192H6.16018H6.15844H6.1567H6.15497H6.15324H6.15151H6.14979H6.14807H6.14636H6.14465H6.14294H6.14124H6.13954H6.13784H6.13615H6.13446H6.13278H6.13109H6.12942H6.12774H6.12607H6.12441H6.12274H6.12108H6.11943H6.11778H6.11613H6.11448H6.11284H6.11121H6.10957H6.10794H6.10632H6.10469H6.10308H6.10146H6.09985H6.09824H6.09664H6.09504H6.09344H6.09185H6.09026H6.08867H6.08709H6.08551H6.08394H6.08236H6.0808H6.07923H6.07767H6.07612H6.07456H6.07302H6.07147H6.06993H6.06839H6.06686H6.06533H6.0638H6.06228H6.06076H6.05924H6.05773H6.05622H6.05471H6.05321H6.05172H6.05022H6.04873H6.04724H6.04576H6.04428H6.04281H6.04133H6.03987H6.0384H6.03694H6.03548H6.03403H6.03258H6.03113H6.02969H6.02825H6.02682H6.02539H6.02396H6.02254H6.02111H6.0197H6.01828H6.01688H6.01547H6.01407H6.01267H6.01127H6.00988H6.0085H6.00711H6.00573H6.00436H6.00298H6.00161H6.00025H5.99889H5.99753H5.99618H5.99482H5.99348H5.99213H5.99079H5.98946H5.98813H5.9868H5.98547H5.98415H5.98283H5.98152H5.98021H5.9789H5.9776H5.9763H5.97501H5.97371H5.97243H5.97114H5.96986C5.06612 7.60598 4.3335 6.87335 4.3335 5.96962ZM5.96986 5.33325C5.61841 5.33325 5.3335 5.61816 5.3335 5.96962C5.3335 6.32107 5.61841 6.60598 5.96986 6.60598H5.97114H5.97243H5.97371H5.97501H5.9763H5.9776H5.9789H5.98021H5.98152H5.98283H5.98415H5.98547H5.9868H5.98813H5.98946H5.99079H5.99213H5.99348H5.99482H5.99618H5.99753H5.99889H6.00025H6.00161H6.00298H6.00436H6.00573H6.00711H6.0085H6.00988H6.01127H6.01267H6.01407H6.01547H6.01688H6.01828H6.0197H6.02111H6.02254H6.02396H6.02539H6.02682H6.02825H6.02969H6.03113H6.03258H6.03403H6.03548H6.03694H6.0384H6.03987H6.04133H6.04281H6.04428H6.04576H6.04724H6.04873H6.05022H6.05172H6.05321H6.05471H6.05622H6.05773H6.05924H6.06076H6.06228H6.0638H6.06533H6.06686H6.06839H6.06993H6.07147H6.07302H6.07456H6.07612H6.07767H6.07923H6.0808H6.08236H6.08394H6.08551H6.08709H6.08867H6.09026H6.09185H6.09344H6.09504H6.09664H6.09824H6.09985H6.10146H6.10308H6.10469H6.10632H6.10794H6.10957H6.11121H6.11284H6.11448H6.11613H6.11778H6.11943H6.12108H6.12274H6.12441H6.12607H6.12774H6.12942H6.13109H6.13278H6.13446H6.13615H6.13784H6.13954H6.14124H6.14294H6.14465H6.14636H6.14807H6.14979H6.15151H6.15324H6.15497H6.1567H6.15844H6.16018H6.16192H6.16367H6.16542H6.16717H6.16893H6.17069H6.17246H6.17423H6.176H6.17778H6.17956H6.18134H6.18313H6.18492H6.18672H6.18852H6.19032H6.19212H6.19393H6.19575H6.19757H6.19939H6.20121H6.20304H6.20487H6.20671H6.20855H6.21039H6.21224H6.21409H6.21594H6.2178H6.21966H6.22152H6.22339H6.22526H6.22714H6.22902H6.2309H6.23279H6.23468H6.23658H6.23847H6.24038H6.24228H6.24419H6.2461H6.24802H6.24994H6.25186H6.25379H6.25572H6.25766H6.25959H6.26154H6.26348H6.26543H6.26738H6.26934H6.2713H6.27327H6.27523H6.27721H6.27918H6.28116H6.28314H6.28513H6.28712H6.28911H6.29111H6.29311H6.29511H6.29712H6.29913H6.30115H6.30317H6.30519H6.30722H6.30925H6.31128H6.31332H6.31536H6.31741H6.31946H6.32151H6.32356H6.32562H6.32769H6.32975H6.33182H6.3339H6.33598H6.33806H6.34014H6.34223H6.34433H6.34642H6.34852H6.35063H6.35273H6.35484H6.35696H6.35908H6.3612H6.36333H6.36545H6.36759H6.36972H6.37187H6.37401H6.37616H6.37831H6.38046H6.38262H6.38479H6.38695H6.38912H6.39129H6.39347H6.39565H6.39784H6.40003H6.40222H6.40441H6.40661H6.40882H6.41102H6.41323H6.41545H6.41766H6.41989H6.42211H6.42434H6.42657H6.42881H6.43105H6.43329H6.43554H6.43779H6.44004H6.4423H6.44456H6.44683H6.4491H6.45137H6.45365H6.45593H6.45821H6.4605H6.46279H6.46508H6.46738H6.46968H6.47199H6.4743H6.47661H6.47893H6.48125H6.48357H6.4859H6.48823H6.49057H6.49291H6.49525H6.4976H6.49995H6.5023H6.50466H6.50702H6.50938H6.51175H6.51412H6.5165H6.51888H6.52126H6.52365H6.52604H6.52843H6.53083H6.53323H6.53563H6.53804H6.54046H6.54287H6.54529H6.54771H6.55014H6.55257H6.55501H6.55744H6.55989H6.56233H6.56478H6.56723H6.56969H6.57215H6.57461H6.57708H6.57955H6.58203H6.58451H6.58699H6.58947H6.59196H6.59446H6.59695H6.59945H6.60196H6.60447H6.60623V6.60466V6.6021V6.59954V6.59699V6.59444V6.59189V6.58935V6.58682V6.58428V6.58176V6.57923V6.57671V6.5742V6.57168V6.56918V6.56667V6.56417V6.56168V6.55919V6.5567V6.55422V6.55174V6.54926V6.54679V6.54432V6.54186V6.5394V6.53695V6.5345V6.53205V6.52961V6.52717V6.52474V6.52231V6.51988V6.51746V6.51504V6.51263V6.51022V6.50781V6.50541V6.50301V6.50062V6.49823V6.49584V6.49346V6.49109V6.48871V6.48635V6.48398V6.48162V6.47926V6.47691V6.47456V6.47222V6.46988V6.46754V6.46521V6.46288V6.46056V6.45824V6.45592V6.45361V6.45131V6.449V6.4467V6.44441V6.44212V6.43983V6.43755V6.43527V6.43299V6.43072V6.42846V6.42619V6.42394V6.42168V6.41943V6.41719V6.41494V6.41271V6.41047V6.40824V6.40602V6.40379V6.40158V6.39936V6.39715V6.39495V6.39275V6.39055V6.38836V6.38617V6.38399V6.3818V6.37963V6.37746V6.37529V6.37312V6.37096V6.36881V6.36665V6.36451V6.36236V6.36022V6.35809V6.35596V6.35383V6.35171V6.34959V6.34747V6.34536V6.34325V6.34115V6.33905V6.33696V6.33487V6.33278V6.3307V6.32862V6.32654V6.32447V6.32241V6.32035V6.31829V6.31623V6.31418V6.31214V6.3101V6.30806V6.30603V6.304V6.30197V6.29995V6.29793V6.29592V6.29391V6.29191V6.28991V6.28791V6.28592V6.28393V6.28194V6.27996V6.27799V6.27602V6.27405V6.27208V6.27012V6.26817V6.26622V6.26427V6.26233V6.26039V6.25845V6.25652V6.25459V6.25267V6.25075V6.24884V6.24693V6.24502V6.24312V6.24122V6.23932V6.23743V6.23555V6.23367V6.23179V6.22991V6.22804V6.22618V6.22432V6.22246V6.22061V6.21876V6.21691V6.21507V6.21323V6.2114V6.20957V6.20775V6.20592V6.20411V6.2023V6.20049V6.19868V6.19688V6.19509V6.19329V6.19151V6.18972V6.18794V6.18617V6.18439V6.18263V6.18086V6.1791V6.17735V6.1756V6.17385V6.17211V6.17037V6.16863V6.1669V6.16518V6.16345V6.16174V6.16002V6.15831V6.1566V6.1549V6.1532V6.15151V6.14982V6.14813V6.14645V6.14478V6.1431V6.14143V6.13977V6.13811V6.13645V6.1348V6.13315V6.1315V6.12986V6.12822V6.12659V6.12496V6.12334V6.12172V6.1201V6.11849V6.11688V6.11528V6.11368V6.11208V6.11049V6.1089V6.10732V6.10574V6.10416V6.10259V6.10103V6.09946V6.0979V6.09635V6.0948V6.09325V6.09171V6.09017V6.08864V6.0871V6.08558V6.08406V6.08254V6.08102V6.07951V6.07801V6.07651V6.07501V6.07352V6.07203V6.07054V6.06906V6.06758V6.06611V6.06464V6.06317V6.06171V6.06026V6.0588V6.05736V6.05591V6.05447V6.05303V6.0516V6.05017V6.04875V6.04733V6.04591V6.0445V6.04309V6.04169V6.04029V6.0389V6.03751V6.03612V6.03473V6.03336V6.03198V6.03061V6.02924V6.02788V6.02652V6.02517V6.02382V6.02247V6.02113V6.01979V6.01846V6.01713V6.0158V6.01448V6.01316V6.01185V6.01054V6.00923V6.00793V6.00663V6.00534V6.00405V6.00277V6.00148V6.00021V5.99894V5.99767V5.9964V5.99514V5.99389V5.99263V5.99138V5.99014V5.9889V5.98766V5.98643V5.98521V5.98398V5.98276V5.98155V5.98033V5.97913V5.97792V5.97673V5.97553V5.97434V5.97315V5.97197V5.97079V5.96962C6.60623 5.61816 6.32131 5.33325 5.96986 5.33325ZM5.96986 11.394C5.6184 11.394 5.3335 11.6789 5.3335 12.0303C5.3335 12.3818 5.61841 12.6667 5.96986 12.6667C6.32131 12.6667 6.60623 12.3818 6.60623 12.0303V11.394H5.96986ZM7.60656 10.394V7.60609H10.3944V10.394H7.60656ZM12.0301 5.33325C11.6787 5.33325 11.3938 5.61816 11.3938 5.96962V6.60598H12.0301C12.3816 6.60598 12.6665 6.32107 12.6665 5.96962C12.6665 5.61816 12.3816 5.33325 12.0301 5.33325ZM11.3938 12.0303V11.394H12.0301C12.3816 11.394 12.6665 11.6789 12.6665 12.0303C12.6665 12.3818 12.3816 12.6667 12.0301 12.6667C11.6787 12.6667 11.3938 12.3818 11.3938 12.0303Z"
        fill="currentColor"></path>
</svg>