<svg xmlns="http://www.w3.org/2000/svg" xmlns:xlink="http://www.w3.org/1999/xlink" width="200" height="200"
    viewBox="0 0 200 200" fill="none">
    <path
        d="M166.6 0L33.3 0C15 0 0 15 0 33.3L0 166.7C0 185 15 200 33.3 200L166.7 200C185 200 200 185 200 166.6L200 33.3C200 15 185 0 166.6 0ZM16.6 166.7L16.6 33.4C16.6 24.2 24.1 16.7 33.3 16.7L33.3 16.6L58.4 16.6L58.4 183.4L33.3 183.4C24.1 183.4 16.6 175.9 16.6 166.7ZM183.3 166.7C183.3 175.9 175.8 183.4 166.6 183.4L75 183.4L75 16.6L166.6 16.6C175.8 16.6 183.3 24.1 183.3 33.3L183.3 166.7Z"
        fill="currentColor">
    </path>
    <path
        d="M135.8 69.2C137.4 67.5 139.1 66.7 141.6 66.7C144.1 66.7 145.8 67.5 147.5 69.2C150.8 72.6 150.8 77.6 147.5 80.8999L128.3 100L147.5 119.2C150.8 122.6 150.8 127.6 147.5 130.9C144.1 134.2 139.1 134.2 135.8 130.9L110.8 105.9C107.5 102.5 107.5 97.5 110.8 94.2L135.8 69.2Z"
        fill="currentColor">
    </path>
</svg>