<svg t="1736825768700" class="icon" viewBox="0 0 1024 1024" version="1.1" xmlns="http://www.w3.org/2000/svg" p-id="4547"
    width="200" height="200">
    <path
        d="M852.992 0H170.496C76.8 0 0 76.8 0 170.496v683.008C0 947.2 76.8 1024 170.496 1024h683.008c93.696 0 170.496-76.8 170.496-171.008V170.496C1024 76.8 947.2 0 852.992 0z m-768 853.504V171.008c0-47.104 38.4-85.504 85.504-85.504v-0.512h128.512v854.016H170.496c-47.104 0-85.504-38.4-85.504-85.504z m853.504 0c0 47.104-38.4 85.504-85.504 85.504H384V84.992h468.992c47.104 0 85.504 38.4 85.504 85.504v683.008z"
        p-id="4548" fill="currentColor"></path>
    <path
        d="M627.2 354.304c-8.192-8.704-16.896-12.8-29.696-12.8s-21.504 4.096-30.208 12.8c-16.896 17.408-16.896 43.008 0 59.904L665.6 512l-98.304 98.304c-16.896 17.408-16.896 43.008 0 59.904 17.408 16.896 43.008 16.896 59.904 0l128-128c16.896-17.408 16.896-43.008 0-59.904l-128-128z"
        p-id="4549" fill="currentColor"></path>
</svg>